<?xml version="1.0" standalone="no"?>
<!DOCTYPE svg PUBLIC "-//W3C//DTD SVG 20010904//EN"
 "http://www.w3.org/TR/2001/REC-SVG-20010904/DTD/svg10.dtd">
<svg version="1.0" xmlns="http://www.w3.org/2000/svg"
 width="1500.000000pt" height="700.000000pt" viewBox="0 0 1500.000000 700.000000"
 preserveAspectRatio="xMidYMid meet">

<g transform="translate(0.000000,700.000000) scale(0.100000,-0.100000)"
fill="#000000" stroke="none">
<path d="M2635 5402 c-169 -79 -184 -278 -32 -423 l52 -50 5 -1097 c4 -846 8
-1102 18 -1119 16 -28 49 -38 76 -23 64 34 71 107 57 605 -6 226 -13 482 -15
570 -5 243 11 911 24 990 10 61 16 75 56 117 56 60 104 159 103 213 0 49 -45
142 -79 167 -32 23 -130 57 -183 64 -29 3 -54 -1 -82 -14z m166 -161 c36 -36
37 -70 3 -110 -66 -79 -182 9 -133 100 24 45 89 50 130 10z"/>
<path d="M4937 5118 c-9 -7 -24 -31 -34 -53 -17 -37 -18 -90 -21 -635 -4 -713
15 -2287 28 -2420 12 -112 29 -143 82 -148 45 -4 93 34 108 86 26 87 31 538
21 1808 -10 1375 -9 1336 -59 1363 -28 15 -104 14 -125 -1z"/>
<path d="M3700 4919 c-70 -7 -109 -28 -151 -78 l-34 -40 -105 -6 c-155 -9
-192 -20 -250 -71 -27 -25 -63 -70 -79 -100 l-30 -56 -2 -686 c-1 -378 2 -704
6 -725 8 -43 37 -67 78 -67 24 0 31 7 49 48 29 64 37 244 38 867 1 270 4 508
8 529 10 58 56 78 186 83 l101 4 45 -58 c106 -137 276 -153 382 -35 46 51 61
105 56 203 -2 59 -8 84 -24 106 -46 62 -157 95 -274 82z m132 -146 c23 -21 25
-104 2 -127 -38 -38 -110 -29 -132 18 -16 32 -8 80 19 107 24 24 86 25 111 2z"/>
<path d="M1604 4910 c-40 -9 -87 -42 -114 -79 -17 -24 -20 -45 -20 -120 0
-140 24 -177 154 -237 44 -20 65 -24 94 -19 57 11 111 42 185 107 l68 60 114
-4 c128 -5 146 -13 166 -77 8 -25 13 -239 15 -671 3 -349 7 -659 10 -688 3
-28 12 -59 20 -67 23 -22 69 -18 100 9 l28 23 4 554 c4 558 -4 812 -30 894
-18 55 -92 130 -143 144 -22 6 -76 15 -120 21 -118 15 -163 30 -213 68 -56 42
-114 68 -188 81 -64 12 -85 12 -130 1z m157 -149 c17 -18 29 -40 29 -56 0 -38
-50 -85 -90 -85 -75 0 -108 95 -49 144 40 34 74 33 110 -3z"/>
<path d="M6770 4880 c-232 -49 -354 -118 -552 -309 -83 -80 -117 -121 -167
-205 -65 -109 -131 -248 -131 -278 0 -9 -13 -49 -29 -90 -51 -129 -71 -288
-71 -568 0 -135 5 -261 10 -280 6 -19 17 -74 25 -122 37 -209 152 -450 283
-590 112 -120 246 -206 399 -257 115 -38 340 -57 498 -42 168 15 337 85 513
211 46 33 85 60 86 60 2 0 6 -35 9 -77 3 -45 14 -98 26 -125 l20 -48 96 0 95
0 41 37 40 36 -3 626 c-2 457 -6 633 -15 653 -7 15 -24 35 -40 45 -25 16 -62
18 -435 21 l-408 3 0 -120 c0 -112 1 -121 21 -132 12 -6 124 -15 272 -20 138
-6 253 -11 254 -12 1 -2 3 -131 5 -287 4 -339 8 -322 -116 -404 -214 -141
-361 -185 -574 -173 -129 8 -191 24 -297 76 -183 91 -319 275 -401 546 -27 87
-28 98 -32 374 -4 303 1 355 44 501 56 185 128 315 242 432 246 255 619 297
1053 118 88 -37 154 -53 181 -44 27 8 78 119 78 169 0 53 -16 74 -98 128 -94
62 -178 103 -250 121 -184 48 -512 61 -672 26z"/>
<path d="M11710 4880 c-114 -25 -173 -45 -249 -87 -149 -80 -258 -189 -329
-327 l-47 -91 1 -180 c1 -178 1 -181 32 -253 67 -160 199 -284 421 -396 139
-70 285 -135 416 -185 33 -13 112 -51 175 -85 90 -48 132 -77 191 -136 99 -98
113 -135 107 -293 -5 -137 -26 -185 -117 -270 -119 -109 -249 -150 -476 -149
-200 1 -301 19 -427 77 -158 72 -261 115 -279 115 -9 0 -35 -17 -57 -37 -43
-40 -92 -144 -92 -195 0 -32 55 -83 119 -111 26 -11 66 -29 91 -40 25 -11 105
-35 178 -53 118 -30 156 -35 340 -43 409 -18 577 14 782 152 150 100 276 288
301 447 13 85 5 294 -15 369 -31 119 -202 313 -380 430 -59 39 -112 71 -118
71 -5 0 -37 13 -71 29 -115 55 -182 83 -282 117 -241 84 -403 192 -460 309
-25 50 -27 61 -23 172 l3 119 39 53 c52 70 134 123 238 152 74 21 104 24 278
24 181 0 203 -2 300 -28 58 -15 147 -43 199 -62 106 -40 131 -42 153 -17 24
26 56 94 69 145 20 81 13 89 -124 157 -105 53 -137 64 -232 80 -251 42 -515
50 -655 20z"/>
<path d="M9418 4850 c-102 -18 -116 -40 -283 -455 -64 -159 -228 -562 -363
-895 -135 -333 -258 -639 -273 -680 -15 -41 -53 -136 -85 -210 -70 -167 -114
-285 -121 -326 -4 -27 0 -34 29 -52 18 -11 71 -34 118 -50 l86 -30 31 27 c41
34 55 64 189 394 62 153 120 287 130 298 16 18 39 19 636 19 l619 0 26 -57
c14 -32 45 -110 70 -173 173 -443 168 -432 210 -474 25 -25 33 -28 77 -22 62
7 170 57 190 88 14 22 14 31 -3 103 -24 98 -84 270 -150 424 -27 64 -132 325
-232 581 -100 256 -242 611 -315 790 -281 688 -272 671 -342 689 -55 15 -190
21 -244 11z m112 -417 c37 -84 266 -661 365 -922 87 -230 114 -311 104 -311
-3 0 -85 -7 -184 -14 -338 -28 -444 -30 -515 -13 -36 8 -118 18 -182 22 -65 4
-118 11 -118 15 0 14 45 135 155 420 56 146 110 290 120 320 17 51 193 469
216 511 5 11 12 19 14 19 2 0 14 -21 25 -47z"/>
<path d="M13410 4804 l-40 -36 0 -1273 0 -1273 35 -31 c34 -30 39 -31 126 -31
94 0 128 10 164 49 18 21 20 46 28 384 4 199 7 762 4 1252 -3 798 -5 894 -20
928 -22 51 -63 67 -172 67 -84 0 -86 -1 -125 -36z"/>
<path d="M1342 4046 c-25 -27 -44 -59 -49 -83 -13 -61 -8 -1646 5 -1722 12
-67 28 -93 77 -120 27 -14 98 -17 635 -21 333 -3 613 -9 623 -14 15 -7 17 -26
17 -170 0 -88 -5 -168 -10 -176 -7 -12 -39 -15 -162 -17 -192 -2 -315 -17
-348 -41 -31 -23 -37 -55 -15 -88 l16 -25 557 3 c550 3 558 3 598 25 47 25 68
48 59 63 -21 33 -72 43 -287 54 -119 7 -219 14 -221 16 -33 37 -61 167 -47
220 14 56 36 110 49 123 9 9 161 13 629 15 l617 3 43 41 42 42 0 901 c0 859
-1 902 -19 935 -10 19 -34 44 -52 55 -32 19 -55 20 -342 23 -170 2 -319 1
-332 -2 -58 -15 -73 -74 -31 -123 l24 -28 310 -3 310 -4 7 -111 c4 -62 5 -437
3 -834 -3 -677 -4 -723 -21 -740 -16 -16 -40 -18 -265 -17 -419 1 -2266 25
-2288 30 -12 2 -24 14 -28 26 -3 13 -6 388 -6 834 l0 812 268 3 c248 4 270 5
302 25 48 28 49 49 4 95 l-38 39 -297 0 -296 0 -41 -44z"/>
</g>
</svg>
