<svg xmlns="http://www.w3.org/2000/svg" version="1.1" xmlns:xlink="http://www.w3.org/1999/xlink" xmlns:svgjs="http://svgjs.dev/svgjs" width="1500" height="469" viewBox="0 0 1500 469"><g transform="matrix(1,0,0,1,-0.9090909090909918,-1.6281974918258015)"><svg viewBox="0 0 396 124" data-background-color="#efefef" preserveAspectRatio="xMidYMid meet" height="469" width="1500" xmlns="http://www.w3.org/2000/svg" xmlns:xlink="http://www.w3.org/1999/xlink"><g id="tight-bounds" transform="matrix(1,0,0,1,0.2400000000000091,0.430482918947547)"><svg viewBox="0 0 395.52 123.13903416210489" height="123.13903416210489" width="395.52"><g><svg viewBox="0 0 621.5763074342 193.51816888019562" height="123.13903416210489" width="395.52"><g><rect width="12.62783515221876" height="168.0331422982885" x="180.37131219763893" y="12.742513290953553" fill="#ffffff" opacity="1" stroke-width="0" stroke="transparent" fill-opacity="1" class="rect-yte-0" data-fill-palette-color="primary" rx="1%" id="yte-0" data-palette-color="#ffffff"></rect></g><g transform="matrix(1,0,0,1,226.0563074342,26.745275149144263)"><svg viewBox="0 0 395.52 140.0276185819071" height="140.0276185819071" width="395.52"><g id="textblocktransform"><svg viewBox="0 0 395.52 140.0276185819071" height="140.0276185819071" width="395.52" id="textblock"><g><svg viewBox="0 0 395.52 140.0276185819071" height="140.0276185819071" width="395.52"><g transform="matrix(1,0,0,1,0,0)"><svg width="395.52" viewBox="2.5 -35.6 102.24 36.2" height="140.0276185819071" data-palette-color="#ffffff"><path d="M16.45 0.6L16.45 0.6Q12.4 0.6 9.25-1.5 6.1-3.6 4.3-7.48 2.5-11.35 2.5-16.6L2.5-16.6Q2.5-22.2 4.4-26.48 6.3-30.75 9.88-33.18 13.45-35.6 18.5-35.6L18.5-35.6Q21.75-35.6 24.3-34.8 26.85-34 29.1-32.75L29.1-32.75 27.35-28.8Q25.25-29.95 23.08-30.7 20.9-31.45 18.25-31.45L18.25-31.45Q15.1-31.45 12.65-29.78 10.2-28.1 8.78-24.85 7.35-21.6 7.35-16.9L7.35-16.9Q7.35-12.7 8.65-9.73 9.95-6.75 12.25-5.15 14.55-3.55 17.55-3.55L17.55-3.55Q20.35-3.55 22.53-4.73 24.7-5.9 25.95-7.15L25.95-7.15 25.95-14.8 18.7-14.8 18.7-18.55 30.45-18.55 30.45 0 26.25 0 26.25-3.5Q24.5-1.95 22-0.68 19.5 0.6 16.45 0.6ZM66.6-1.25L62.25 0.5 58.35-9.5 42.15-9.5 38.25 0.4 34.2-1.25 47.9-35 53.1-35 66.6-1.25ZM50.25-30.3L43.65-13.5 56.8-13.5 50.25-30.3ZM80.3 0.6L80.3 0.6Q76.64 0.6 73.64-0.38 70.64-1.35 68.59-2.95L68.59-2.95 71-6.95Q72.8-5.45 75.05-4.5 77.3-3.55 80.3-3.55L80.3-3.55Q83.89-3.55 86-5.05 88.09-6.55 88.09-9.1L88.09-9.1Q88.09-10.55 87.5-11.68 86.89-12.8 85.17-13.88 83.44-14.95 80.09-16.2L80.09-16.2Q76.5-17.6 74.34-19.03 72.19-20.45 71.27-22.28 70.34-24.1 70.34-26.6L70.34-26.6Q70.34-29.1 71.72-31.13 73.09-33.15 75.77-34.38 78.44-35.6 82.25-35.6L82.25-35.6Q85.34-35.6 87.82-34.98 90.3-34.35 92.64-33.2L92.64-33.2 90.89-29.15Q89.19-30.15 86.92-30.83 84.64-31.5 82.14-31.5L82.14-31.5Q78.84-31.5 76.94-30.2 75.05-28.9 75.05-26.85L75.05-26.85Q75.05-25.55 75.59-24.55 76.14-23.55 77.77-22.6 79.39-21.65 82.64-20.45L82.64-20.45Q86.55-19 88.82-17.4 91.09-15.8 92.05-13.93 93-12.05 93-9.65L93-9.65Q93-6.4 91.37-4.1 89.75-1.8 86.87-0.6 84 0.6 80.3 0.6ZM104.74 0L99.99 0 99.99-35 104.74-35 104.74 0Z" opacity="1" transform="matrix(1,0,0,1,0,0)" fill="#ffffff" class="wordmark-text-0" data-fill-palette-color="primary" id="text-0"></path></svg></g></svg></g></svg></g></svg></g><g><svg viewBox="0 0 147.31415211329664 193.51816888019562" height="193.51816888019562" width="147.31415211329664"><g><svg xmlns="http://www.w3.org/2000/svg" xmlns:xlink="http://www.w3.org/1999/xlink" version="1.1" x="0" y="0" viewBox="14.5 3.3 71.1 93.4" enable-background="new 0 0 100 100" xml:space="preserve" height="193.51816888019562" width="147.31415211329664" class="icon-icon-0" data-fill-palette-color="accent" id="icon-0"><path d="M52.1 84.4V92.5H64.3C65.5 92.5 66.4 93.5 66.4 94.6S65.4 96.7 64.3 96.7H35.7C34.5 96.7 33.6 95.7 33.6 94.6S34.6 92.5 35.7 92.5H47.9V84.4H18.7C16.4 84.4 14.5 82.5 14.5 80.2V39.9C14.5 37.6 16.4 35.7 18.7 35.7H33C34.2 35.7 35.1 36.7 35.1 37.8S34.1 39.9 33 39.9H18.7V80.2H81.3V39.9H67.1C65.9 39.9 65 38.9 65 37.8S66 35.7 67.1 35.7H81.4C83.7 35.7 85.6 37.6 85.6 39.9V80.2C85.6 82.5 83.7 84.4 81.4 84.4zM50.2 3.3C53.7 3.4 56.5 6.3 56.4 9.8 56.3 12.5 54.6 14.8 52.2 15.6V68.5C52.2 69.7 51.2 70.6 50.1 70.6 48.9 70.6 48 69.6 48 68.5V15.6C47.1 15.3 46.2 14.7 45.5 14 44.3 12.8 43.7 11.2 43.7 9.5 43.8 6.1 46.6 3.3 50.1 3.3zM50.1 7.5C48.9 7.5 48 8.4 47.9 9.6 47.9 10.2 48.1 10.7 48.5 11.1S49.4 11.7 50 11.8H50.1C51.2 11.8 52.2 10.9 52.2 9.7 52.1 8.5 51.2 7.6 50.1 7.5M57.2 58.6V25.9C57.2 22.1 60.3 19 64.1 19H68.9C69.8 16.5 72.1 14.8 74.9 14.8 78.4 14.8 81.3 17.7 81.3 21.2S78.4 27.6 74.9 27.6C72.1 27.6 69.8 25.8 68.9 23.4H64.1C62.6 23.4 61.5 24.6 61.5 26V58.7C61.5 59.9 60.5 60.8 59.4 60.8 58.2 60.8 57.2 59.8 57.2 58.6M72.8 21.2C72.8 22.4 73.7 23.3 74.9 23.3S77 22.4 77 21.2 76.1 19 74.9 19 72.8 20 72.8 21.2M38.5 58.6V25.9C38.5 24.4 37.3 23.3 35.9 23.3H31.1C30.2 25.8 27.9 27.5 25.1 27.5 21.6 27.5 18.7 24.6 18.7 21.1S21.6 14.7 25.1 14.7C27.9 14.7 30.2 16.5 31.1 18.9H35.9C39.7 18.9 42.8 22 42.8 25.8V58.5C42.8 59.7 41.8 60.6 40.7 60.6S38.5 59.8 38.5 58.6M27.2 21.2C27.2 20 26.3 19.1 25.1 19.1S23 20 23 21.2 23.9 23.3 25.1 23.3 27.2 22.3 27.2 21.2" fill="#4dfa7a" data-fill-palette-color="accent"></path></svg></g></svg></g></svg></g><defs></defs></svg><rect width="395.52" height="123.13903416210489" fill="none" stroke="none" visibility="hidden"></rect></g></svg></g></svg>